<svg height="512" viewBox="0 0 64 64" width="512" xmlns="http://www.w3.org/2000/svg"><g id="elastic"><path d="m61 31a7 7 0 0 1 -7 7h-44a7 7 0 0 1 0-14h.84a9.994 9.994 0 0 1 17.3-9.8 12.991 12.991 0 1 1 23.09 9.8h2.77a7 7 0 0 1 7 7z" fill="#57a4ff"/><path d="m61 31a7 7 0 0 1 -7 7h-4a7 7 0 0 0 0-14h-2.77a12.98 12.98 0 0 0 -8.21-20.84 11.758 11.758 0 0 1 1.98-.16 12.984 12.984 0 0 1 10.23 21h2.77a7 7 0 0 1 7 7z" fill="#2488ff"/><path d="m54 56a5 5 0 0 1 -5 5h-34a5 5 0 0 1 0-10h1c-.28-.78-1-1.62-1-2.5a7.5 7.5 0 0 1 7.5-7.5l15.81-5.97q.345-.03.69-.03a9.99 9.99 0 0 1 7.99 16h2.01a5 5 0 0 1 5 5z" fill="#e0e0e2"/><path d="m54 56a5 5 0 0 1 -5 5h-4a5 5 0 0 0 0-10h-2.01a9.982 9.982 0 0 0 -5.47-15.67l.79-.3q.345-.03.69-.03a9.99 9.99 0 0 1 7.99 16h2.01a5 5 0 0 1 5 5z" fill="#c6c5ca"/><path d="m40 40-1.98.49 1.05 1.75-2.83 2.83-1.75-1.05-.49 1.98v5h5l-7 6-7-6h5v-5l-.49-1.98-1.75 1.05-2.83-2.83.41-.68.64-1.07-1.98-.49v-4l1.98-.49-1.05-1.75 2.83-2.83 1.75 1.05.49-1.98v-5h-5l7-6 7 6h-5v5l.49 1.98 1.75-1.05 2.83 2.83-.76 1.27-.29.48 1.98.49z" fill="#c0ab91"/><path d="m40 40-1.98.49 1.05 1.75-2.83 2.83-1.75-1.05-.49 1.98v5h5l-7 6-7-6h5v-5l-.49-1.98-1.75 1.05-1.37-1.37a23.945 23.945 0 0 0 7.61-5.7 23.669 23.669 0 0 0 3.7-5.61l1.37 1.37-1.05 1.75 1.98.49z" fill="#b39a7c"/><circle cx="32" cy="38" fill="#ffde55" r="3"/><path d="m62 31a8.011 8.011 0 0 0 -8-8h-.88a13.994 13.994 0 0 0 -12.12-21 14.041 14.041 0 0 0 -13.41 10.04 11 11 0 0 0 -18.17 10.98 8 8 0 0 0 .58 15.98h13v1.02c-.16-.01-.33-.02-.5-.02a8.506 8.506 0 0 0 -8.5 8.5 3.507 3.507 0 0 0 .4 1.53 6 6 0 0 0 .6 11.97h34a6 6 0 0 0 0-12h-.21a10.792 10.792 0 0 0 1.21-5 10.9 10.9 0 0 0 -1.78-6h5.78a8.011 8.011 0 0 0 8-8zm-13 21a4 4 0 0 1 0 8h-34a4 4 0 0 1 0-8h1a1.014 1.014 0 0 0 .82-.42 1.035 1.035 0 0 0 .12-.92 6.909 6.909 0 0 0 -.47-.99 3.068 3.068 0 0 1 -.47-1.17 6.476 6.476 0 0 1 7.95-6.33.99.99 0 0 0 .27.78l2.83 2.83a1.014 1.014 0 0 0 1.22.15l.59-.36.14.55v3.88h-4a1 1 0 0 0 -.65 1.76l7 6a1 1 0 0 0 1.3 0l7-6a1 1 0 0 0 -.65-1.76h-4v-3.88l.14-.55.59.36a1.014 1.014 0 0 0 1.22-.15l2.83-2.83a1.014 1.014 0 0 0 .15-1.22l-.36-.59.67-.17a1 1 0 0 0 .76-.97v-3.78a8.993 8.993 0 0 1 5.19 14.18 1 1 0 0 0 .8 1.6zm-22.16-17-.65-1.08 1.73-1.73 1.08.65a.967.967 0 0 0 .89.06.984.984 0 0 0 .59-.68l.49-1.98a.986.986 0 0 0 .03-.24v-5a1 1 0 0 0 -1-1h-2.3l4.3-3.68 4.3 3.68h-2.3a1 1 0 0 0 -1 1v5a.986.986 0 0 0 .03.24l.49 1.98a.984.984 0 0 0 .59.68 1 1 0 0 0 .89-.06l1.08-.65 1.73 1.73-.65 1.08a1 1 0 0 0 -.06.89.984.984 0 0 0 .68.59l1.22.3v2.44l-1.22.3a.984.984 0 0 0 -.68.59 1 1 0 0 0 .06.89l.65 1.08-1.73 1.73-1.08-.65a1 1 0 0 0 -.89-.06.984.984 0 0 0 -.59.68l-.49 1.98a.986.986 0 0 0 -.03.24v5a1 1 0 0 0 1 1h2.3l-4.3 3.68-4.3-3.68h2.3a1 1 0 0 0 1-1v-5a.986.986 0 0 0 -.03-.24l-.49-1.98a.984.984 0 0 0 -.59-.68 1 1 0 0 0 -.89.06l-1.08.65-1.73-1.73.65-1.08a1 1 0 0 0 .06-.89.984.984 0 0 0 -.68-.59l-1.22-.3v-2.44l1.22-.3a.984.984 0 0 0 .68-.59 1 1 0 0 0 -.06-.89zm19.69 2a10.8 10.8 0 0 0 -6.51-2.95 1.025 1.025 0 0 0 -.24-1l-2.83-2.83a1.014 1.014 0 0 0 -1.22-.15l-.59.36-.14-.55v-3.88h4a1 1 0 0 0 .65-1.76l-7-6a1 1 0 0 0 -1.3 0l-7 6a1 1 0 0 0 .65 1.76h4v3.88l-.14.55-.59-.36a1.014 1.014 0 0 0 -1.22.15l-2.83 2.83a1.014 1.014 0 0 0 -.15 1.22l.36.59-.67.17a1 1 0 0 0 -.76.97v1h-13a6 6 0 0 1 0-12h.84a1.013 1.013 0 0 0 .84-.45 1.034 1.034 0 0 0 .08-.95 8.747 8.747 0 0 1 -.76-3.6 9 9 0 0 1 16.33-5.22.991.991 0 0 0 1.05.39 1 1 0 0 0 .75-.83 11.992 11.992 0 0 1 23.87 1.66 11.818 11.818 0 0 1 -2.56 7.38 1 1 0 0 0 .79 1.62h2.77a6 6 0 0 1 0 12z"/><path d="m49 16h2a10.011 10.011 0 0 0 -10-10v2a8.009 8.009 0 0 1 8 8z"/><path d="m13 20h2a5.006 5.006 0 0 1 5-5v-2a7.008 7.008 0 0 0 -7 7z"/><path d="m32 34a4 4 0 1 0 4 4 4 4 0 0 0 -4-4zm0 6a2 2 0 1 1 2-2 2 2 0 0 1 -2 2z"/></g></svg>