<svg id="Flat" height="512" viewBox="0 0 512 512" width="512" xmlns="http://www.w3.org/2000/svg"><g><g fill="#9af0d3"><path d="m302.059 168h67.882v16h-67.882z" transform="matrix(.707 -.707 .707 .707 -26.034 289.153)"/><path d="m168 142.059h16v67.882h-16z" transform="matrix(.707 -.707 .707 .707 -72.902 176)"/><path d="m142.059 328h67.882v16h-67.882z" transform="matrix(.707 -.707 .707 .707 -186.044 222.879)"/><path d="m328 302.059h16v67.882h-16z" transform="matrix(.707 -.707 .707 .707 -139.176 336)"/></g><circle cx="104" cy="104" fill="#4dccff" r="80"/><circle cx="408" cy="104" fill="#4dccff" r="80"/><circle cx="408" cy="408" fill="#4dccff" r="80"/><circle cx="104" cy="408" fill="#4dccff" r="80"/><path d="m439.884 117.676c0 18.558-14.288 33.6-31.912 33.6s-31.911-15.044-31.911-33.6 31.911-61.6 31.911-61.6 31.912 43.043 31.912 61.6z" fill="#fffdf8"/><circle cx="408" cy="408" fill="#4dccff" r="80"/><circle cx="256" cy="88" fill="#fac850" r="24"/><circle cx="256" cy="424" fill="#fac850" r="24"/><circle cx="88" cy="256" fill="#fac850" r="24"/><g><circle cx="424" cy="256" fill="#fac850" r="24"/><g fill="#9af0d3"><path d="m278.628 65.373a32 32 0 1 0 -30.628 53.604v57.023h16v-57.023a31.99 31.99 0 0 0 14.628-53.6zm-11.314 33.94a15.992 15.992 0 1 1 0-22.627 16.017 16.017 0 0 1 0 22.627z"/><path d="m264 393.012v-57.012h-16v57.012a32 32 0 1 0 16 0zm-8 46.988a16 16 0 1 1 16-16 16.019 16.019 0 0 1 -16 16z"/><path d="m88 224a32 32 0 1 0 30.988 40h57.012v-16h-57.012a32.059 32.059 0 0 0 -30.988-24zm0 48a16 16 0 1 1 16-16 16.019 16.019 0 0 1 -16 16z"/><path d="m424 224a32.059 32.059 0 0 0 -30.988 24h-57.012v16h57.012a32 32 0 1 0 30.988-40zm0 48a16 16 0 1 1 16-16 16.019 16.019 0 0 1 -16 16z"/></g></g><circle cx="256" cy="256" fill="#57e6b6" r="88"/><g fill="#fffdf8"><path d="m272 216a48.042 48.042 0 0 0 -46.653 59.339l-15 15 11.314 11.314 15-15a48.027 48.027 0 0 0 55.1-66.411 47.83 47.83 0 0 0 -19.761-4.242z"/><path d="m408 416h-24v16h24a8 8 0 0 1 0 16h-48v16h48a24 24 0 0 0 0-48z"/></g><g fill="#fffdf8"><path d="m105.854 50.878-40 48a8 8 0 0 0 6.146 13.122h49.052l-23.708 35.562 13.312 8.876 32-48a8 8 0 0 0 -6.656-12.438h-46.92l29.066-34.878z"/><path d="m432 360h-24v16h24a8 8 0 0 1 0 16h-80v16h80a24 24 0 0 0 0-48z"/><path d="m440 424h16v16h-16z"/><path d="m376 352h16v16h-16z"/><g><path d="m134.466 416h-23.753l-2.821 16h23.753z"/><path d="m140.108 384h-23.752l-2.822 16h23.753z"/><path d="m100.108 384h-23.753l-2.821 16h23.753z"/><path d="m91.644 432 2.822-16h-23.753l-2.821 16z"/><path d="m155.771 370.858a8 8 0 0 0 -6.128-2.858h-80a8 8 0 0 0 -7.879 6.611l-11.285 64a8 8 0 0 0 7.878 9.389h29.643v16h16v-16h34.357a8 8 0 0 0 7.879-6.611l11.285-64a8 8 0 0 0 -1.75-6.531zm-17.414 69.142h-80l11.286-64h80z"/></g></g></g></svg>