<svg id="Capa_1" enable-background="new 0 0 510 510" height="512" viewBox="0 0 510 510" width="512" xmlns="http://www.w3.org/2000/svg"><g><path d="m510 77v306c0 8.28-6.72 15-15 15-7.55 0-13.78-5.58-14.83-12.84l-189.69 27.68c1.324 9.261-5.863 17.16-14.83 17.16h-245.65c-16.54 0-30-13.46-30-30v-323c0-16.57 13.43-30 30-30h450c16.57 0 30 13.43 30 30z" fill="#eef4ff"/><path d="m510 77v306c0 8.28-6.72 15-15 15-7.55 0-13.78-5.58-14.83-12.84l-189.69 27.68c1.324 9.261-5.863 17.16-14.83 17.16h-20.65v-383h225c16.57 0 30 13.43 30 30z" fill="#d9e6fc"/><path d="m510 77v66h-510v-66c0-16.57 13.43-30 30-30h450c16.57 0 30 13.43 30 30z" fill="#ffe14d"/><g fill="#fb3"><path d="m510 77v66h-255v-96h225c16.57 0 30 13.43 30 30z"/><path d="m127 94c-8.284 0-15-6.716-15-15v-64c0-8.284 6.716-15 15-15s15 6.716 15 15v64c0 8.284-6.716 15-15 15z"/><path d="m270 15v64c0 8.28-6.72 15-15 15s-15-6.72-15-15v-64c0-8.28 6.72-15 15-15s15 6.72 15 15z"/></g><path d="m270 15v64c0 8.28-6.72 15-15 15v-94c8.28 0 15 6.72 15 15z" fill="#e68a2e"/><path d="m383 94c-8.284 0-15-6.716-15-15v-64c0-8.284 6.716-15 15-15s15 6.716 15 15v64c0 8.284-6.716 15-15 15z" fill="#e68a2e"/><path d="m119 222h-40c-8.284 0-15-6.716-15-15s6.716-15 15-15h40c8.284 0 15 6.716 15 15s-6.716 15-15 15z" fill="#97de3d"/><path d="m327 222h-40c-8.284 0-15-6.716-15-15s6.716-15 15-15h40c8.284 0 15 6.716 15 15s-6.716 15-15 15z" fill="#59c36a"/><path d="m431 222h-40c-8.284 0-15-6.716-15-15s6.716-15 15-15h40c8.284 0 15 6.716 15 15s-6.716 15-15 15z" fill="#59c36a"/><path d="m119 286h-40c-8.284 0-15-6.716-15-15s6.716-15 15-15h40c8.284 0 15 6.716 15 15s-6.716 15-15 15z" fill="#97de3d"/><path d="m119 350h-40c-8.284 0-15-6.716-15-15s6.716-15 15-15h40c8.284 0 15 6.716 15 15s-6.716 15-15 15z" fill="#97de3d"/><path d="m224.213 227 9.394-9.394c5.858-5.857 5.858-15.355 0-21.213-5.857-5.857-15.355-5.857-21.213 0l-9.394 9.394-9.394-9.394c-5.857-5.857-15.355-5.857-21.213 0s-5.858 15.355 0 21.213l9.394 9.394-9.394 9.394c-5.858 5.857-5.858 15.355 0 21.213 5.859 5.858 15.355 5.858 21.213 0l9.394-9.394 9.394 9.394c5.859 5.858 15.355 5.858 21.213 0 5.858-5.857 5.858-15.355 0-21.213z" fill="#ff5b5b"/><circle cx="383" cy="383" fill="#ffe14d" r="127"/><path d="m510 383c0 70.03-56.97 127-127 127v-254c70.03 0 127 56.97 127 127z" fill="#fb3"/><path d="m397.36 432.54c-.75 7.38-6.85 13.17-14.36 13.44-5.985.65-13.622-4.056-15.25-11.931-5.1-.99-9.99-2.819-16-6.14-7.25-4-9.89-13.12-5.88-20.38 4-7.25 13.12-9.891 20.38-5.891 5.87 3.24 7.82 3.511 16.11 3.45 5.088 0 9.216-2.565 9.62-5.41.556-3.813-27.245-6.109-38.82-19.54-12.782-14.828-6.33-39.419 14.45-47.27 1.181-8.331 8.996-13.508 15.39-12.851 7.01.25 12.8 5.33 14.14 12.011 9.563 2.864 18.52 8.179 18.52 18.16 0 13.055-15.474 19.906-25.14 11.29-4.916-2.254-11.35-1.305-13.05-.19 5.696 2.85 12.864 5.094 18.98 6.91 34.961 10.403 32.714 52.889.91 64.342z" fill="#fb3"/><path d="m383 360.11v-40.09c7.01.25 12.8 5.33 14.14 12.011 6.36 1.905 12.897 5.944 12.67 6.239 11.393 8.86 4.994 27.04-9.27 27.04-3.85 0-7.35-1.449-10.02-3.829-1.44-.661-4.02-1.521-7.52-1.371z" fill="#e68a2e"/><path d="m397.36 432.54c-.75 7.38-6.85 13.17-14.36 13.44v-40.9c6.22-.26 8.74-3.71 8.98-5.4.277-1.897-6.594-3.475-8.98-4.229v-31.72c3.44 1.34 7.79 2.789 13.45 4.47 34.961 10.4 32.714 52.886.91 64.339z" fill="#e68a2e"/></g></svg>