<svg id="Layer_1" enable-background="new 0 0 497 497" height="512" viewBox="0 0 497 497" width="512" xmlns="http://www.w3.org/2000/svg"><g><g fill="#45d987"><path d="m302.5 206h-108c-4.142 0-7.5 3.358-7.5 7.5s3.358 7.5 7.5 7.5h108c4.142 0 7.5-3.358 7.5-7.5s-3.358-7.5-7.5-7.5z"/><path d="m302.5 246h-108c-4.142 0-7.5 3.358-7.5 7.5s3.358 7.5 7.5 7.5h108c4.142 0 7.5-3.358 7.5-7.5s-3.358-7.5-7.5-7.5z"/><path d="m194.5 101h108c4.142 0 7.5-3.358 7.5-7.5s-3.358-7.5-7.5-7.5h-108c-4.142 0-7.5 3.358-7.5 7.5s3.358 7.5 7.5 7.5z"/><path d="m302.5 126h-108c-4.142 0-7.5 3.358-7.5 7.5s3.358 7.5 7.5 7.5h108c4.142 0 7.5-3.358 7.5-7.5s-3.358-7.5-7.5-7.5z"/><path d="m302.5 327h-108c-4.142 0-7.5 3.358-7.5 7.5s3.358 7.5 7.5 7.5h108c4.142 0 7.5-3.358 7.5-7.5s-3.358-7.5-7.5-7.5z"/><path d="m302.5 367h-108c-4.142 0-7.5 3.358-7.5 7.5s3.358 7.5 7.5 7.5h108c4.142 0 7.5-3.358 7.5-7.5s-3.358-7.5-7.5-7.5z"/></g><path d="m302.5 167.605h194.5v131.79h-194.5z" fill="#88c3e0"/><path d="m0 167.605h194.5v131.79h-194.5z" fill="#88c3e0"/><path d="m497 57.5v116h-194.5v-116c0-2.209 1.791-4 4-4h186.5c2.209 0 4 1.791 4 4z" fill="#a9dbf5"/><path d="m497 83.5v60h-160.5c-2.209 0-4-1.791-4-4v-52c0-2.209 1.791-4 4-4z" fill="#43809f"/><path d="m378.493 115.5c-8.284 0-15-6.716-15-15v-17h30v17c0 8.284-6.716 15-15 15z" fill="#f78e36"/><path d="m428.5 115.5c-8.284 0-15-6.716-15-15v-17h30v17c0 8.284-6.716 15-15 15z" fill="#f78e36"/><path d="m497 203.5v60h-160.5c-2.209 0-4-1.791-4-4v-52c0-2.209 1.791-4 4-4z" fill="#43809f"/><path d="m378.493 235.5c-8.284 0-15-6.716-15-15v-17h30v17c0 8.284-6.716 15-15 15z" fill="#f78e36"/><path d="m428.5 235.5c-8.284 0-15-6.716-15-15v-17h30v17c0 8.284-6.716 15-15 15z" fill="#f78e36"/><path d="m302.5 293.5h194.5v135h-194.5z" fill="#a9dbf5"/><path d="m497 323.5v60h-160.5c-2.209 0-4-1.791-4-4v-52c0-2.209 1.791-4 4-4z" fill="#43809f"/><path d="m378.493 355.5c-8.284 0-15-6.716-15-15v-17h30v17c0 8.284-6.716 15-15 15z" fill="#f78e36"/><path d="m428.5 355.5c-8.284 0-15-6.716-15-15v-17h30v17c0 8.284-6.716 15-15 15z" fill="#f78e36"/><path d="m194.5 57.5v116h-194.5v-116c0-2.209 1.791-4 4-4h186.5c2.209 0 4 1.791 4 4z" fill="#a9dbf5"/><path d="m164.5 87.5v52c0 2.209-1.791 4-4 4h-160.5v-60h160.5c2.209 0 4 1.791 4 4z" fill="#43809f"/><path d="m118.507 115.5c8.284 0 15-6.716 15-15v-17h-30v17c0 8.284 6.716 15 15 15z" fill="#f78e36"/><path d="m68.5 115.5c8.284 0 15-6.716 15-15v-17h-30v17c0 8.284 6.716 15 15 15z" fill="#f78e36"/><path d="m164.5 207.5v52c0 2.209-1.791 4-4 4h-160.5v-60h160.5c2.209 0 4 1.791 4 4z" fill="#43809f"/><path d="m118.507 235.5c8.284 0 15-6.716 15-15v-17h-30v17c0 8.284 6.716 15 15 15z" fill="#f78e36"/><path d="m68.5 235.5c8.284 0 15-6.716 15-15v-17h-30v17c0 8.284 6.716 15 15 15z" fill="#f78e36"/><path d="m0 293.5h194.5v135h-194.5z" fill="#a9dbf5"/><path d="m164.5 327.5v52c0 2.209-1.791 4-4 4h-160.5v-60h160.5c2.209 0 4 1.791 4 4z" fill="#43809f"/><path d="m118.507 355.5c8.284 0 15-6.716 15-15v-17h-30v17c0 8.284 6.716 15 15 15z" fill="#f78e36"/><path d="m68.5 355.5c8.284 0 15-6.716 15-15v-17h-30v17c0 8.284 6.716 15 15 15z" fill="#f78e36"/><path d="m493 443.5h-489c-2.209 0-4-1.791-4-4v-26h497v26c0 2.209-1.791 4-4 4z" fill="#43809f"/></g></svg>