<svg id="Layer_1" enable-background="new 0 0 512 512" height="512" viewBox="0 0 512 512" width="512" xmlns="http://www.w3.org/2000/svg"><g><path d="m154.073 247.913c-14.743 0-26.695 11.952-26.695 26.695s11.952 26.695 26.695 26.695 26.695-11.952 26.695-26.695c.001-14.743-11.951-26.695-26.695-26.695z" fill="#7be492"/><path d="m154.073 247.913c-5.761 0-11.091 1.831-15.453 4.934 6.801 4.839 11.242 12.778 11.242 21.761s-4.441 16.923-11.242 21.761c4.362 3.103 9.692 4.934 15.453 4.934 14.743 0 26.695-11.952 26.695-26.695.001-14.743-11.951-26.695-26.695-26.695z" fill="#45d987"/><path d="m210.133 357.363h-112.119c0-30.961 25.099-56.06 56.06-56.06s56.059 25.099 56.059 56.06z" fill="#7be492"/><path d="m154.073 301.303c-5.362 0-10.542.769-15.453 2.175 23.443 6.711 40.607 28.287 40.607 53.885h30.905c.001-30.961-25.098-56.06-56.059-56.06z" fill="#45d987"/><circle cx="357.926" cy="274.608" fill="#7be492" r="26.695"/><path d="m357.927 247.913c-5.761 0-11.091 1.83-15.453 4.934 6.801 4.839 11.242 12.779 11.242 21.761s-4.441 16.923-11.242 21.761c4.362 3.103 9.692 4.934 15.453 4.934 14.743 0 26.695-11.952 26.695-26.695-.001-14.743-11.952-26.695-26.695-26.695z" fill="#45d987"/><path d="m413.986 357.363h-112.119c0-30.961 25.099-56.06 56.06-56.06s56.059 25.099 56.059 56.06z" fill="#7be492"/><path d="m357.927 301.303c-5.362 0-10.542.769-15.453 2.175 23.443 6.711 40.607 28.287 40.607 53.885h30.905c0-30.961-25.099-56.06-56.059-56.06z" fill="#45d987"/><path d="m256 0c-141.382 0-256 114.618-256 256s114.618 256 256 256 256-114.618 256-256-114.618-256-256-256zm159.163 415.163c-38.852 38.852-89.406 61.742-143.71 65.4v-20.072c0-8.534-6.918-15.453-15.453-15.453s-15.453 6.918-15.453 15.453v20.072c-54.304-3.659-104.858-26.548-143.71-65.4s-61.742-89.406-65.4-143.71h20.072c8.534 0 15.453-6.919 15.453-15.453s-6.918-15.453-15.453-15.453h-20.072c3.659-54.304 26.548-104.858 65.4-143.71s89.406-61.742 143.71-65.4v20.072c0 8.534 6.918 15.453 15.453 15.453s15.453-6.919 15.453-15.453v-20.072c54.304 3.659 104.858 26.548 143.71 65.4s61.742 89.406 65.4 143.71h-20.072c-8.534 0-15.453 6.918-15.453 15.453 0 8.534 6.918 15.453 15.453 15.453h20.072c-3.658 54.304-26.548 104.858-65.4 143.71z" fill="#ffc328"/><circle cx="253.088" cy="244.516" fill="#29cef6" r="36.402"/><path d="m253.088 208.113c-5.526 0-10.761 1.238-15.453 3.441 12.377 5.812 20.95 18.383 20.95 32.961s-8.573 27.149-20.95 32.962c4.692 2.203 9.927 3.441 15.453 3.441 20.105 0 36.402-16.298 36.402-36.402 0-20.105-16.298-36.403-36.402-36.403z" fill="#22b5ed"/><path d="m329.533 357.363h-152.89c0-42.219 34.226-76.445 76.445-76.445s76.445 34.226 76.445 76.445z" fill="#29cef6"/><path d="m253.088 280.918c-5.294 0-10.462.539-15.453 1.564 34.811 7.146 60.992 37.956 60.992 74.881h30.905c.001-42.22-34.225-76.445-76.444-76.445z" fill="#22b5ed"/><g fill="#43809f"><path d="m328.957 101.249c-2.901-2.959-7.649-3.002-10.606-.104l-65.163 63.895-40.39-41.127c-2.903-2.954-7.651-2.999-10.606-.096-2.955 2.902-2.998 7.65-.096 10.605l45.641 46.474c1.468 1.495 3.409 2.245 5.352 2.245 1.895 0 3.791-.714 5.25-2.145l70.514-69.141c2.957-2.9 3.003-7.648.104-10.606z"/><path d="m425.773 349.863h-339.546c-4.142 0-7.5 3.357-7.5 7.5s3.358 7.5 7.5 7.5h339.547c4.143 0 7.5-3.357 7.5-7.5s-3.358-7.5-7.501-7.5z"/></g></g></svg>