<svg id="Layer_1" enable-background="new 0 0 512 512" height="512" viewBox="0 0 512 512" width="512" xmlns="http://www.w3.org/2000/svg"><g><path d="m305.49 271.453h-187.493c-12.517 0-22.664-10.147-22.664-22.664v-78.294c0-12.517 10.147-22.664 22.664-22.664h187.493c12.517 0 22.664 10.147 22.664 22.664v78.294c0 12.517-10.147 22.664-22.664 22.664z" fill="#a9dbf5"/><path d="m305.49 147.831h-30.905c12.517 0 22.664 10.147 22.664 22.664v78.294c0 12.517-10.147 22.664-22.664 22.664h30.905c12.517 0 22.664-10.147 22.664-22.664v-78.294c0-12.517-10.147-22.664-22.664-22.664z" fill="#88c3e0"/><path d="m126.238 236.427v-53.569c0-2.276 1.845-4.121 4.121-4.121h162.769c2.276 0 4.121 1.845 4.121 4.121v53.569c0 2.276-1.845 4.121-4.121 4.121h-162.769c-2.276-.001-4.121-1.846-4.121-4.121z" fill="#43809f"/><path d="m173.62 211.702c-8.534 0-15.453-6.918-15.453-15.453v-17.513h30.905v17.513c0 8.535-6.918 15.453-15.452 15.453z" fill="#f78e36"/><path d="m225.136 211.702c-8.534 0-15.453-6.918-15.453-15.453v-17.513h30.905v17.513c.001 8.535-6.918 15.453-15.452 15.453z" fill="#f78e36"/><path d="m401.818 186.755-173.715-70.547c-11.597-4.71-17.181-17.929-12.471-29.526l29.459-72.54c4.71-11.597 17.929-17.181 29.526-12.471l173.715 70.547c11.597 4.71 17.181 17.929 12.471 29.526l-29.459 72.54c-4.709 11.598-17.928 17.181-29.526 12.471z" fill="#a9dbf5"/><path d="m448.333 72.218-28.634-11.628c11.597 4.71 17.181 17.929 12.471 29.526l-29.459 72.54c-4.71 11.597-17.929 17.181-29.526 12.471l28.634 11.629c11.597 4.71 24.816-.874 29.526-12.471l29.459-72.54c4.709-11.598-.874-24.817-12.471-29.527z" fill="#88c3e0"/><path d="m248.919 86.858 20.156-49.633c.856-2.109 3.26-3.124 5.368-2.267l150.807 61.243c2.109.856 3.124 3.26 2.267 5.368l-20.156 49.633c-.856 2.109-3.26 3.124-5.368 2.267l-150.807-61.243c-2.108-.856-3.124-3.26-2.267-5.368z" fill="#43809f"/><g fill="#f78e36"><path d="m302.121 81.778c-7.907-3.211-11.714-12.224-8.503-20.131l6.59-16.226 28.634 11.629-6.59 16.226c-3.211 7.906-12.224 11.713-20.131 8.502z"/><path d="m349.851 101.161c-7.907-3.211-11.714-12.224-8.503-20.131l6.59-16.226 28.634 11.629-6.59 16.226c-3.21 7.907-12.224 11.714-20.131 8.502z"/><path d="m405.242 440.402h-298.484c-11.843 0-21.965-8.808-23.974-20.861l-25.609-153.627h397.65l-25.609 153.627c-2.01 12.054-12.131 20.861-23.974 20.861z"/></g><path d="m423.92 265.914-25.61 153.627c-2.009 12.054-12.131 20.861-23.974 20.861h30.905c11.843 0 21.965-8.808 23.974-20.861l25.609-153.627z" fill="#f86f1b"/><path d="m461.006 271.453h-410.012c-3.414 0-6.181-2.767-6.181-6.181v-18.543c0-3.414 2.767-6.181 6.181-6.181h410.012c3.414 0 6.181 2.767 6.181 6.181v18.543c0 3.413-2.767 6.181-6.181 6.181z" fill="#f3f3f3"/><path d="m461.006 240.547h-30.905c3.414 0 6.181 2.767 6.181 6.181v18.543c0 3.414-2.767 6.181-6.181 6.181h30.905c3.414 0 6.181-2.767 6.181-6.181v-18.543c0-3.413-2.767-6.181-6.181-6.181z" fill="#e4e4e4"/><path d="m508 512h-504c-2.209 0-4-1.791-4-4v-22.905c0-2.209 1.791-4 4-4h504c2.209 0 4 1.791 4 4v22.905c0 2.209-1.791 4-4 4z" fill="#43809f"/><circle cx="162.254" cy="438.857" fill="#a9dbf5" r="42.237"/><circle cx="162.254" cy="438.857" fill="#43809f" r="15.453"/><circle cx="349.746" cy="438.857" fill="#a9dbf5" r="42.237"/><circle cx="349.746" cy="438.857" fill="#43809f" r="15.453"/></g></svg>