<svg height="512" viewBox="0 0 512 512" width="512" xmlns="http://www.w3.org/2000/svg"><g id="Flat"><path d="m464 208v216l-208 64-208-64v-216l208-64z" fill="#f8bc1e"/><path d="m464 208-208 64v216l208-64z" fill="#f79726"/><path d="m48 208 208 64v216l-208-64z" fill="#f5a922"/><path d="m96 318.769 112 34.462v-40l-112-34.462z" fill="#e8732d"/><path d="m416 318.769-112 34.462v-40l112-34.462z" fill="#e8732d"/><path d="m359.63 413.538h16.74v16h-16.74z" fill="#e8732d" transform="matrix(.956 -.294 .294 .956 -107.687 126.852)"/><path d="m391.63 403.692h16.74v16h-16.74z" fill="#e8732d" transform="matrix(.956 -.294 .294 .956 -103.377 135.826)"/><path d="m423.63 393.846h16.74v16h-16.74z" fill="#e8732d" transform="matrix(.956 -.294 .294 .956 -99.067 144.801)"/><path d="m152 418.091h16v16.74h-16z" fill="#e8732d" transform="matrix(.294 -.956 .956 .294 -294.656 453.976)"/><path d="m184 427.938h16v16.74h-16z" fill="#e8732d" transform="matrix(.294 -.956 .956 .294 -281.477 491.511)"/><path d="m216 437.784h16v16.74h-16z" fill="#e8732d" transform="matrix(.294 -.956 .956 .294 -268.299 529.047)"/><path d="m300.392 54.613h42.143v16h-42.143z" fill="#c9c9c8" transform="matrix(.5 -.866 .866 .5 106.507 309.702)"/><path d="m324 20.364h16v48h-16z" fill="#0093b9" transform="matrix(.5 -.866 .866 .5 127.58 309.703)"/><path d="m182.536 41.541h16v42.143h-16z" fill="#c9c9c8" transform="matrix(.866 -.5 .5 .866 -5.779 103.657)"/><path d="m156 36.364h48v16h-48z" fill="#0093b9" transform="matrix(.866 -.5 .5 .866 1.933 95.943)"/><circle cx="256" cy="176" fill="#0093b9" r="120"/><path d="m256 176h120a120 120 0 0 0 -120-120z" fill="#f8bc1e"/><g fill="#57c3c1"><path d="m248 80h16v16h-16z"/><path d="m204 91.79h16v16h-16z" transform="matrix(.866 -.5 .5 .866 -21.492 119.369)"/><path d="m171.79 124h16v16h-16z" transform="matrix(.5 -.866 .866 .5 -24.42 221.703)"/><path d="m160 168h16v16h-16z"/><path d="m171.79 212h16v16h-16z" transform="matrix(.866 -.5 .5 .866 -85.913 119.369)"/><path d="m204 244.21h16v16h-16z" transform="matrix(.5 -.866 .866 .5 -112.421 309.703)"/><path d="m248 256h16v16h-16z"/><path d="m292 244.21h16v16h-16z" transform="matrix(.866 -.5 .5 .866 -85.913 183.789)"/><path d="m324.21 212h16v16h-16z" transform="matrix(.5 -.866 .866 .5 -24.42 397.703)"/><path d="m336 168h16v16h-16z"/><path d="m324.21 124h16v16h-16z" transform="matrix(.866 -.5 .5 .866 -21.492 183.789)"/><path d="m292 91.79h16v16h-16z" transform="matrix(.5 -.866 .866 .5 63.58 309.703)"/><path d="m320 184h-64a8 8 0 0 1 -8-8v-64h16v56h56z"/></g></g></svg>