<svg height="512" viewBox="0 0 512 512" width="512" xmlns="http://www.w3.org/2000/svg"><g id="flat"><path d="m347.459 461.607a139.47 139.47 0 0 0 72.773-258.441l-72.773-72.773 8.082 52.536c-2.675-.153-5.369-.239-8.082-.239a139.459 139.459 0 1 0 0 278.917z" fill="#fbb540"/><path d="m158.737 56a134.748 134.748 0 0 0 -70.31 249.691l70.31 70.309-7.809-50.757c2.585.148 5.187.231 7.809.231a134.737 134.737 0 0 0 0-269.474z" fill="#43dcfe"/><path d="m391.283 356.689-40-88a8 8 0 0 0 -14.566 0l-40 88a8 8 0 0 0 14.566 6.622l8.778-19.311h47.878l8.778 19.311a8 8 0 0 0 14.566-6.622zm-63.95-28.689 16.667-36.667 16.667 36.667z" fill="#d18d28"/><path d="m206.71 224.193a35.723 35.723 0 0 0 -12.41-25.679 64.367 64.367 0 0 0 -14.624-9.448c.044-1.095.065-2.2.065-3.3v-9.766a8 8 0 0 0 -16 0v8.029a63.961 63.961 0 0 0 -16-.783v-23.246h40a8 8 0 0 0 0-16h-40v-24a8 8 0 0 0 -16 0v24h-32a8 8 0 0 0 0 16h32v26.57a64.256 64.256 0 0 0 -16.394 8.452 31.573 31.573 0 0 0 -6.3 45.413 31.573 31.573 0 0 0 46.977 2.6 80.5 80.5 0 0 0 21.22-37.163 48.542 48.542 0 0 1 6.648 4.789 19.62 19.62 0 0 1 1.1 28.773 8 8 0 0 0 11.308 11.315 35.728 35.728 0 0 0 10.41-26.556zm-85.176 6.246a15.571 15.571 0 0 1 3.11-22.4 48.349 48.349 0 0 1 7.094-4.2v32.3a15.351 15.351 0 0 1 -10.204-5.7zm26.2-1.969v-29.155a47.552 47.552 0 0 1 14.44.711 64.386 64.386 0 0 1 -14.436 28.444z" fill="#0276b4"/></g></svg>